<svg xmlns="http://www.w3.org/2000/svg" xmlns:xlink="http://www.w3.org/1999/xlink" version="1.1" width="256" height="256" viewBox="0 0 256 256" xml:space="preserve">

<defs>
</defs>
<g style="stroke: none; stroke-width: 0; stroke-dasharray: none; stroke-linecap: butt; stroke-linejoin: miter; stroke-miterlimit: 10; fill: none; fill-rule: nonzero; opacity: 1;" transform="translate(1.4065934065934016 1.4065934065934016) scale(2.81 2.81)" >
	<path d="M 60.879 31.299 c -6.173 5.123 -11.7 10.614 -16.569 16.37 h -0.021 h -0.001 c -2.531 -4.833 -5.459 -9.591 -8.752 -14.248 l -14.077 4.832 c 6.182 6.566 11.571 13.473 16.011 20.67 l 6.243 10.118 l 4.665 -9.973 c 4.161 -8.895 9.903 -17.532 17.283 -25.655 c 7.361 -8.13 13.293 -13.679 23.373 -20.676 C 77.638 18.82 70.1 23.623 60.879 31.299 z" style="stroke: none; stroke-width: 1; stroke-dasharray: none; stroke-linecap: butt; stroke-linejoin: miter; stroke-miterlimit: 10; fill: rgb(0,196,51); fill-rule: nonzero; opacity: 1;" transform=" matrix(1 0 0 1 0 0) " stroke-linecap="round" />
	<path d="M 76.876 29.21 c 2.368 4.761 3.708 10.121 3.708 15.79 C 80.584 64.62 64.62 80.584 45 80.584 S 9.416 64.62 9.416 45 S 25.379 9.416 45 9.416 c 9.278 0 17.734 3.572 24.075 9.409 c 2.586 -1.794 5.273 -3.557 8.057 -5.287 C 68.958 5.192 57.576 0 45 0 C 20.187 0 0 20.187 0 45 s 20.187 45 45 45 s 45 -20.188 45 -45 c 0 -8.039 -2.129 -15.586 -5.838 -22.125 C 81.592 24.964 79.173 27.079 76.876 29.21 z" style="stroke: none; stroke-width: 1; stroke-dasharray: none; stroke-linecap: butt; stroke-linejoin: miter; stroke-miterlimit: 10; fill: rgb(0,124,62); fill-rule: nonzero; opacity: 1;" transform=" matrix(1 0 0 1 0 0) " stroke-linecap="round" />
</g>
</svg>